<svg class="eyes-svg" width="505" height="294" viewBox="0 0 505 294" fill="none" xmlns="http://www.w3.org/2000/svg">
  <ellipse cx="122.1" cy="130.637" rx="67.5847" ry="109.637" fill="white"/>
  <ellipse cx="373.415" cy="130.637" rx="67.5847" ry="109.637" fill="white"/>
  <path d="M161.05 143.973C161.05 166.368 143.119 184.523 121 184.523C98.8809 184.523 80.9498 166.368 80.9498 143.973C80.9498 121.577 98.8809 103.422 121 103.422C143.119 103.422 161.05 121.577 161.05 143.973Z" fill="black"/>
  <ellipse cx="382.05" cy="144.551" rx="40.0502" ry="40.5508" fill="black"/>
  <path class="bottom-left" d="M249.5 268.439C249.5 282.368 233.085 293.439 214.5 293.439C195.915 293.439 0 294.868 0 280.939C0 267.011 195.915 243 214.5 243C233.085 243 249.5 254.511 249.5 268.439Z" fill="#7D7D7D"/>
  <path class="bottom-right" d="M505 283.604C505 297.532 310.236 293.439 291.651 293.439C273.066 293.439 258 282.148 258 268.22C258 254.291 273.066 243 291.651 243C310.236 243 505 269.675 505 283.604Z" fill="#7D7D7D"/>
  <rect class="top-bar" x="31" width="431" height="93" rx="25" fill="#5C5C5C"/>
</svg>
