<svg width="362" height="199" viewBox="0 0 362 199" fill="none" xmlns="http://www.w3.org/2000/svg">
<path d="M61.3359 0.5C78.0352 0.500142 93.2329 11.4824 104.281 29.4053C115.325 47.3203 122.171 72.1014 122.171 99.5C122.171 126.899 115.325 151.68 104.281 169.595C93.2329 187.518 78.0352 198.5 61.3359 198.5C44.6366 198.5 29.4391 187.518 18.3906 169.595C7.34709 151.68 0.5 126.899 0.5 99.5C0.5 72.1013 7.34709 47.3203 18.3906 29.4053C29.4391 11.4823 44.6366 0.5 61.3359 0.5Z" fill="white" stroke="black"/>
<path d="M289.414 0.5C306.113 0.500142 321.311 11.4824 332.359 29.4053C343.402 47.3203 350.249 72.1014 350.249 99.5C350.249 126.899 343.402 151.68 332.359 169.595C321.311 187.518 306.113 198.5 289.414 198.5C272.714 198.5 257.517 187.518 246.468 169.595C235.425 151.68 228.578 126.899 228.578 99.5C228.578 72.1013 235.425 47.3203 246.468 29.4053C257.517 11.4823 272.714 0.5 289.414 0.5Z" fill="white" stroke="black"/>
<path d="M145.694 86.8014C145.694 107.126 129.421 123.603 109.347 123.603C89.273 123.603 72.9999 107.126 72.9999 86.8014C72.9999 66.4765 89.273 50 109.347 50C129.421 50 145.694 66.4765 145.694 86.8014Z" fill="black"/>
<path d="M361.694 86.8014C361.694 107.126 345.421 123.603 325.347 123.603C305.273 123.603 289 107.126 289 86.8014C289 66.4765 305.273 50 325.347 50C345.421 50 361.694 66.4765 361.694 86.8014Z" fill="black"/>
</svg>
