<svg width="77" height="54" viewBox="0 0 77 54" fill="none" xmlns="http://www.w3.org/2000/svg">
<path d="M76.5401 5.4384C76.5401 8.44194 74.2926 10.8768 71.5201 10.8768C68.7476 10.8768 0 8.44194 0 5.4384C0 2.43485 68.7476 0 71.5201 0C74.2926 0 76.5401 2.43485 76.5401 5.4384Z" fill="white"/>
<path d="M76.5401 19.4384C76.5401 22.4419 74.2926 24.8768 71.5201 24.8768C68.7476 24.8768 19 22.4419 19 19.4384C19 16.4349 68.7476 14 71.5201 14C74.2926 14 76.5401 16.4349 76.5401 19.4384Z" fill="white"/>
<path d="M76.5401 33.4384C76.5401 36.4419 74.2926 38.8768 71.5201 38.8768C68.7476 38.8768 31.5 36.4419 31.5 33.4384C31.5 30.4349 68.7476 28 71.5201 28C74.2926 28 76.5401 30.4349 76.5401 33.4384Z" fill="white"/>
<path d="M76.5401 48.4384C76.5401 51.442 74.2926 53.8768 71.5201 53.8768C68.7476 53.8768 43.5 51.442 43.5 48.4384C43.5 45.4349 68.7476 43 71.5201 43C74.2926 43 76.5401 45.4349 76.5401 48.4384Z" fill="white"/>
</svg>
