<svg width="85" height="51" viewBox="0 0 85 51" fill="none" xmlns="http://www.w3.org/2000/svg">
<path d="M14.6953 0.500488C18.5012 0.500488 22.0405 3.15453 24.6553 7.646C27.2627 12.125 28.8916 18.3457 28.8916 25.2437C28.8916 32.1417 27.2627 38.3623 24.6553 42.8413C22.0405 47.3328 18.5012 49.9868 14.6953 49.9868C10.8895 49.9867 7.35104 47.3326 4.73633 42.8413C2.12884 38.3623 0.500028 32.1418 0.5 25.2437C0.5 18.3456 2.12891 12.125 4.73633 7.646C7.35104 3.15467 10.8895 0.500654 14.6953 0.500488Z" fill="white" stroke="black"/>
<path d="M69.3418 0.500244C73.1477 0.500244 76.687 3.15428 79.3018 7.64575C81.9091 12.1247 83.5381 18.3454 83.5381 25.2434C83.5381 32.1414 81.9092 38.3621 79.3018 42.8411C76.687 47.3325 73.1477 49.9866 69.3418 49.9866C65.536 49.9864 61.9975 47.3324 59.3828 42.8411C56.7753 38.3621 55.1465 32.1415 55.1465 25.2434C55.1465 18.3454 56.7754 12.1247 59.3828 7.64575C61.9975 3.15442 65.536 0.50041 69.3418 0.500244Z" fill="white" stroke="black"/>
<path d="M23.4044 28.1247C23.4044 33.281 19.5054 37.4611 14.6958 37.4611C9.88623 37.4611 5.98728 33.281 5.98728 28.1247C5.98728 22.9683 9.88623 18.7882 14.6958 18.7882C19.5054 18.7882 23.4044 22.9683 23.4044 28.1247Z" fill="black"/>
<path d="M76.4171 28.1247C76.4171 33.281 72.5181 37.4611 67.7085 37.4611C62.8989 37.4611 59 33.281 59 28.1247C59 22.9683 62.8989 18.7882 67.7085 18.7882C72.5181 18.7882 76.4171 22.9683 76.4171 28.1247Z" fill="black"/>
</svg>
